<svg xmlns="http://www.w3.org/2000/svg" xmlns:xlink="http://www.w3.org/1999/xlink" width="100" zoomAndPan="magnify" viewBox="0 0 375 374.999991" height="100" preserveAspectRatio="xMidYMid meet" version="1.0"><defs><g/></defs><g fill="#000000" fill-opacity="1"><g transform="translate(119.203122, 221.249985)"><g><path d="M 5.445312 0 L 27 0 L 27 -1.621094 C 23.175781 -2.898438 22.363281 -6.375 22.363281 -14.714844 L 22.363281 -43.335938 L 31.75 -43.335938 C 45.886719 -43.335938 49.941406 -40.554688 51.796875 -34.53125 L 53.417969 -34.53125 L 53.417969 -54.230469 L 51.796875 -54.230469 C 49.941406 -48.203125 45.886719 -45.421875 31.75 -45.421875 L 22.363281 -45.421875 L 22.363281 -79.027344 L 39.746094 -79.027344 C 51.214844 -79.027344 56.429688 -76.015625 60.71875 -67.902344 L 62.226562 -68.25 L 61.414062 -81.113281 L 5.445312 -81.113281 L 5.445312 -79.492188 C 9.269531 -78.214844 10.082031 -74.738281 10.082031 -66.394531 L 10.082031 -14.714844 C 10.082031 -6.375 9.269531 -2.898438 5.445312 -1.621094 Z M 5.445312 0 "/></g></g><g transform="translate(184.208996, 221.249985)"><g><path d="M 64.425781 0.8125 C 66.394531 0.8125 70.105469 0.695312 72.769531 0 L 72.769531 -1.621094 C 72.191406 -1.507812 71.609375 -1.507812 71.03125 -1.507812 C 66.742188 -1.507812 65.46875 -4.289062 59.328125 -19.699219 C 53.1875 -35.109375 50.636719 -40.554688 37.542969 -42.0625 C 52.953125 -43.917969 60.253906 -51.910156 60.253906 -62.574219 C 60.253906 -71.957031 55.039062 -81.113281 29.78125 -81.113281 L 5.445312 -81.113281 L 5.445312 -79.492188 C 9.269531 -78.214844 10.082031 -74.738281 10.082031 -66.394531 L 10.082031 -14.714844 C 10.082031 -6.375 9.269531 -2.898438 5.445312 -1.621094 L 5.445312 0 L 27 0 L 27 -1.621094 C 23.175781 -2.898438 22.363281 -6.375 22.363281 -14.714844 L 22.363281 -41.597656 L 29.199219 -41.597656 C 39.398438 -41.597656 39.976562 -35.921875 46.929688 -19.003906 C 52.492188 -5.445312 54.808594 0.8125 64.425781 0.8125 Z M 22.363281 -43.453125 L 22.363281 -78.910156 C 24.101562 -79.144531 25.839844 -79.257812 27.460938 -79.257812 C 41.945312 -79.257812 47.972656 -69.175781 47.972656 -59.792969 C 47.972656 -50.867188 42.988281 -43.453125 29.78125 -43.453125 Z M 22.363281 -43.453125 "/></g></g></g><path stroke-linecap="butt" transform="matrix(0.750805, 0.000617064, -0.000616402, 0.75, 111.08268, 226.280786)" fill="none" stroke-linejoin="miter" d="M 0.000368443 1.500619 L 203.781693 1.499624 " stroke="#000000" stroke-width="3" stroke-opacity="1" stroke-miterlimit="4"/></svg>